<?xml version="1.0" standalone="no"?>
<!DOCTYPE svg PUBLIC "-//W3C//DTD SVG 20010904//EN"
 "http://www.w3.org/TR/2001/REC-SVG-20010904/DTD/svg10.dtd">
<svg version="1.0" xmlns="http://www.w3.org/2000/svg"
 width="64.000000pt" height="64.000000pt" viewBox="0 0 64.000000 64.000000"
 preserveAspectRatio="xMidYMid meet">
<metadata>
Created by potrace 1.11, written by Peter Selinger 2001-2013
</metadata>
<g transform="translate(0.000000,64.000000) scale(0.100000,-0.100000)"
fill="#000000" stroke="none">
<path d="M300 630 c-14 -4 -44 -8 -67 -9 -41 -1 -65 -15 -41 -24 8 -3 0 -16
-22 -37 -23 -21 -28 -29 -15 -24 51 18 63 16 80 -10 23 -34 29 -33 44 9 13 36
15 37 89 39 28 1 30 3 15 14 -9 6 -23 12 -30 12 -18 0 -16 10 5 26 16 12 15
13 -8 13 -14 -1 -36 -5 -50 -9z"/>
<path d="M448 545 l43 -37 -26 -34 -25 -33 47 6 c48 5 48 5 71 -36 13 -23 26
-41 29 -41 3 0 3 17 0 39 -4 35 -3 38 15 33 18 -4 19 -2 10 15 -6 11 -19 26
-28 34 -9 7 -28 32 -42 54 -20 30 -27 36 -30 23 -4 -20 -7 -21 -30 -9 -9 4
-30 11 -47 15 -29 7 -29 7 13 -29z"/>
<path d="M80 538 c-35 -43 -69 -109 -69 -133 0 -19 1 -18 11 3 11 22 28 30 28
12 0 -5 5 -10 10 -10 6 0 10 12 10 27 0 17 12 39 31 59 30 31 31 33 8 27 -21
-6 -22 -5 -11 10 8 9 12 21 10 26 -1 6 -14 -3 -28 -21z"/>
<path d="M256 459 c-3 -17 -6 -41 -6 -53 0 -17 -12 -27 -47 -43 l-48 -20 46
-21 c45 -20 47 -23 54 -71 4 -28 10 -51 13 -51 4 0 17 18 30 40 26 46 21 44
90 26 28 -8 52 -12 52 -10 0 2 -16 21 -35 41 -19 20 -35 41 -35 46 0 5 14 27
31 49 17 21 29 41 27 43 -3 3 -27 -2 -54 -10 -27 -8 -52 -15 -55 -15 -3 0 -15
18 -28 40 -12 22 -24 40 -25 40 -2 0 -6 -14 -10 -31z"/>
<path d="M46 360 c-11 -19 -26 -40 -35 -47 -13 -9 -14 -14 -3 -24 6 -7 12 -27
12 -43 0 -17 5 -38 10 -46 8 -13 11 -11 16 8 8 26 8 26 40 5 21 -13 64 -79 64
-98 0 -3 -11 -5 -25 -5 -14 0 -25 -4 -25 -8 0 -10 44 -32 63 -32 7 -1 28 -14
47 -30 40 -35 54 -38 47 -11 -5 21 10 31 46 31 17 0 15 4 -13 18 -36 18 -38
26 -24 90 l5 24 -34 -26 c-19 -14 -39 -26 -45 -26 -19 0 -73 52 -92 90 l-19
38 35 36 35 36 -40 0 c-36 0 -40 3 -43 28 l-3 27 -19 -35z"/>
<path d="M572 311 c-16 -51 -33 -64 -82 -59 -22 2 -40 1 -40 -1 0 -3 14 -19
30 -36 l30 -31 -45 -62 c-25 -34 -51 -62 -58 -63 -6 -1 -28 0 -47 0 l-35 2 25
-20 c20 -16 21 -21 8 -21 -9 0 -19 -4 -23 -9 -17 -29 152 28 181 61 l19 21
-32 -17 -33 -17 0 30 c0 26 6 33 43 49 24 11 46 16 52 11 15 -14 25 -10 25 9
1 9 11 42 25 72 25 58 25 71 0 50 -13 -11 -15 -9 -17 11 -2 42 -3 47 -9 53 -3
4 -11 -11 -17 -33z"/>
</g>
</svg>
